<?xml version="1.0" encoding="UTF-8" standalone="no"?>
<!-- Created with Inkscape (http://www.inkscape.org/) -->

<svg
   xmlns:dc="http://purl.org/dc/elements/1.1/"
   xmlns:cc="http://creativecommons.org/ns#"
   xmlns:rdf="http://www.w3.org/1999/02/22-rdf-syntax-ns#"
   xmlns:svg="http://www.w3.org/2000/svg"
   xmlns="http://www.w3.org/2000/svg"
   xmlns:xlink="http://www.w3.org/1999/xlink"
   xmlns:sodipodi="http://sodipodi.sourceforge.net/DTD/sodipodi-0.dtd"
   xmlns:inkscape="http://www.inkscape.org/namespaces/inkscape"
   width="210mm"
   height="297mm"
   viewBox="0 0 210 297"
   version="1.1"
   id="svg8"
   inkscape:version="0.92.2 5c3e80d, 2017-08-06"
   sodipodi:docname="honolulu-luaus-logo.svg"
   inkscape:export-filename="/Users/patrickcoleman/Documents/2)work/sites/honolulu-dinner-cruise/images/honolulu-dinner-cruises-logo.png"
   inkscape:export-xdpi="101.75703"
   inkscape:export-ydpi="101.75703">
  <defs
     id="defs2">
    <linearGradient
       inkscape:collect="always"
       id="linearGradient919">
      <stop
         style="stop-color:#ffb500;stop-opacity:1;"
         offset="0"
         id="stop915" />
      <stop
         style="stop-color:#c2005b;stop-opacity:0"
         offset="1"
         id="stop917" />
    </linearGradient>
    <linearGradient
       id="linearGradient871"
       inkscape:collect="always">
      <stop
         id="stop867"
         offset="0"
         style="stop-color:#ffb500;stop-opacity:1;" />
      <stop
         id="stop869"
         offset="1"
         style="stop-color:#c2005b;stop-opacity:1" />
    </linearGradient>
    <linearGradient
       inkscape:collect="always"
       id="linearGradient855">
      <stop
         style="stop-color:#ffb500;stop-opacity:1;"
         offset="0"
         id="stop851" />
      <stop
         style="stop-color:#ffb500;stop-opacity:0;"
         offset="1"
         id="stop853" />
    </linearGradient>
    <radialGradient
       inkscape:collect="always"
       xlink:href="#linearGradient855"
       id="radialGradient857"
       cx="128.00097"
       cy="135.44618"
       fx="128.00097"
       fy="135.44618"
       r="63.083951"
       gradientTransform="matrix(1,0,0,1.0011405,0,-0.15447936)"
       gradientUnits="userSpaceOnUse" />
    <radialGradient
       inkscape:collect="always"
       xlink:href="#linearGradient871"
       id="radialGradient873"
       cx="146.33199"
       cy="119.74101"
       fx="146.33199"
       fy="119.74101"
       r="55.725697"
       gradientUnits="userSpaceOnUse"
       gradientTransform="matrix(1.0907866,-0.47952049,0.41066649,0.93416134,-63.336031,80.168914)" />
    <linearGradient
       inkscape:collect="always"
       xlink:href="#linearGradient919"
       id="linearGradient913"
       x1="78.577248"
       y1="118.19669"
       x2="80.180862"
       y2="221.09546"
       gradientUnits="userSpaceOnUse"
       gradientTransform="translate(31.537804,-18.174328)" />
    <radialGradient
       inkscape:collect="always"
       xlink:href="#linearGradient871"
       id="radialGradient929"
       cx="84.724442"
       cy="169.77971"
       fx="84.724442"
       fy="169.77971"
       r="56.514366"
       gradientUnits="userSpaceOnUse"
       gradientTransform="translate(31.537804,-18.174328)" />
  </defs>
  <sodipodi:namedview
     id="base"
     pagecolor="#ffffff"
     bordercolor="#666666"
     borderopacity="1.0"
     inkscape:pageopacity="0.0"
     inkscape:pageshadow="2"
     inkscape:zoom="1.0756182"
     inkscape:cx="471.45487"
     inkscape:cy="461.17755"
     inkscape:document-units="mm"
     inkscape:current-layer="layer1"
     showgrid="false"
     inkscape:snap-global="false"
     showguides="true"
     inkscape:guide-bbox="true"
     inkscape:measure-start="0,0"
     inkscape:measure-end="0,0"
     inkscape:window-width="1446"
     inkscape:window-height="810"
     inkscape:window-x="0"
     inkscape:window-y="1"
     inkscape:window-maximized="0">
    <sodipodi:guide
       position="-130.37076,167.26815"
       orientation="1,0"
       id="guide935"
       inkscape:locked="false" />
  </sodipodi:namedview>
  <metadata
     id="metadata5">
    <rdf:RDF>
      <cc:Work
         rdf:about="">
        <dc:format>image/svg+xml</dc:format>
        <dc:type
           rdf:resource="http://purl.org/dc/dcmitype/StillImage" />
        <dc:title></dc:title>
      </cc:Work>
    </rdf:RDF>
  </metadata>
  <g
     inkscape:label="Layer 1"
     inkscape:groupmode="layer"
     id="layer1">
    <ellipse
       style="opacity:1;fill:url(#radialGradient873);fill-opacity:1;stroke:none;stroke-width:0.00036342;stroke-linecap:round;stroke-linejoin:round;stroke-miterlimit:4;stroke-dasharray:none;stroke-dashoffset:0;stroke-opacity:1;paint-order:normal"
       id="path815"
       cx="135.67873"
       cy="121.09425"
       transform="rotate(12.984958)"
       r="55.725697" />
    <circle
       style="opacity:1;fill:url(#radialGradient929);fill-opacity:1;stroke:url(#linearGradient913);stroke-width:0.241;stroke-linecap:round;stroke-linejoin:round;stroke-miterlimit:4;stroke-dasharray:none;stroke-dashoffset:0;stroke-opacity:1;paint-order:normal"
       id="path905"
       cx="116.26225"
       cy="151.60538"
       r="56.393867" />
    <path
       transform="matrix(1.0835029,0.3758089,-0.36129241,1.1270374,48.12442,-26.531824)"
       style="opacity:1;fill:url(#radialGradient857);fill-opacity:1;stroke:none;stroke-width:0.241;stroke-linecap:round;stroke-linejoin:round;stroke-miterlimit:4;stroke-dasharray:none;stroke-dashoffset:0;stroke-opacity:1;paint-order:normal"
       inkscape:transform-center-x="2.6765607"
       inkscape:transform-center-y="0.46020787"
       d="m 147.50539,146.3963 29.72073,29.20824 -34.36425,-23.56993 18.62649,37.27596 -24.84916,-33.4509 5.51377,41.30425 -12.64127,-39.70694 -8.19646,40.85659 0.93649,-41.66012 -21.01846,35.98148 14.41277,-39.09878 -31.562793,27.20722 26.327203,-32.30049 -38.686806,15.48464 35.388676,-22.00192 -48.549352,3.08559 47.546082,-10.32066 -51.052291,-15.2911 52.452601,8.12229 L 61.981391,98.676486 114.14499,121.29245 81.362186,81.837994 117.5368,117.63756 105.39657,75.371094 l 18.04054,38.279136 1.14485,-46.378384 6.14835,45.976004 14.80944,-38.95027 -8.1317,41.92784 27.00511,-33.021265 -21.76216,38.309615 36.72099,-23.757439 -34.75787,28.684789 44.18111,-10.06396 -38.52742,15.87706 41.39391,4.79455 -41.59517,2.50697 37.59428,17.97535 z"
       id="path847"
       inkscape:connector-curvature="0"
       sodipodi:nodetypes="ccccccccccccccccccccccccccccccccccccccc" />
    <ellipse
       style="opacity:1;fill:#ffdf03;fill-opacity:1;stroke:none;stroke-width:0.00024618;stroke-linecap:round;stroke-linejoin:round;stroke-miterlimit:4;stroke-dasharray:none;stroke-dashoffset:0;stroke-opacity:1;paint-order:normal"
       id="path825"
       cx="140.43802"
       cy="167.21635"
       rx="16.076103"
       ry="15.930313" />
    <path
       id="circle817"
       style="opacity:1;fill:#630063;fill-opacity:1;stroke:none;stroke-width:0.00036342;stroke-linecap:round;stroke-linejoin:round;stroke-miterlimit:4;stroke-dasharray:none;stroke-dashoffset:0;stroke-opacity:1;paint-order:normal"
       sodipodi:type="arc"
       sodipodi:cx="123.58471"
       sodipodi:cy="146.67824"
       sodipodi:rx="55.725697"
       sodipodi:ry="55.725697"
       sodipodi:start="0.40840704"
       sodipodi:end="2.6738444"
       d="M 174.72723,168.80958 A 55.725697,55.725697 0 0 1 125.23788,202.37941 55.725697,55.725697 0 0 1 73.844743,171.8037"
       sodipodi:open="true"
       transform="rotate(2.6595576)" />
    <path
       style="fill:#000000;stroke-width:0.26458332"
       d=""
       id="path1082"
       inkscape:connector-curvature="0" />
    <g
       id="g1165"
       transform="matrix(0.78162223,0.03069306,-0.03069306,0.78162223,31.156549,44.610019)"
       style="fill:#630063;fill-opacity:1;stroke:none;stroke-opacity:1">
      <path
         style="fill:#630063;fill-opacity:1;stroke:none;stroke-width:0.35277781;stroke-opacity:1"
         d="m 82.223885,163.23437 c -4.055605,-7.88568 -9.781557,-13.64971 -17.469046,-17.58522 -3.811505,-1.95125 -4.579566,-2.52539 -4.579566,-3.42332 0,-1.55177 7.264275,-2.36416 16.351904,-1.8287 4.822012,0.28412 4.902477,0.27665 6.085417,-0.56503 1.413006,-1.00536 1.558218,-1.7986 0.329259,-1.7986 -0.503447,0 -1.025795,-0.29198 -1.24069,-0.69351 -0.557159,-1.04106 0.589133,-1.59271 5.108834,-2.45861 5.017174,-0.96121 6.190142,-1.53067 6.079645,-2.9516 -0.07031,-0.90421 0.07309,-1.105 0.975911,-1.36648 2.653541,-0.76854 8.466977,-1.38368 16.647337,-1.76152 l 8.88622,-0.41044 8.20029,4.90573 c 5.29657,3.16861 8.38833,5.23335 8.7313,5.83094 0.32025,0.558 2.59963,2.16956 5.74316,4.06049 l 5.21218,3.13528 0.0127,1.46988 c 0.0101,1.16853 -0.16812,1.60249 -0.86915,2.11667 l -0.88182,0.64679 0.56259,3.175 c 0.6713,3.78851 0.52865,8.31952 -0.31248,9.92539 l -0.57927,1.10594 -10.15429,0.21673 c -5.58486,0.1192 -13.01179,0.29448 -16.50429,0.38952 -3.4925,0.095 -12.77938,0.27081 -20.637503,0.39061 l -14.287501,0.21782 -1.411111,-2.74376 z m 62.907175,-5.52325 c -0.10423,-0.72442 -0.71123,-0.90798 -8.05023,-2.43449 -4.36562,-0.90805 -7.95684,-1.62703 -7.98049,-1.59775 -0.0236,0.0293 -0.15244,0.8073 -0.2862,1.72893 -0.24022,1.65513 -0.23103,1.67604 0.74855,1.70358 0.54547,0.0154 3.76988,0.31365 7.16537,0.66293 8.62812,0.88752 8.53989,0.88819 8.403,-0.0632 z m -19.7598,-2.81933 -0.10848,-1.48615 -2.99861,-0.60928 c -1.64924,-0.33509 -4.58612,-0.78497 -6.52639,-0.99973 -1.94028,-0.21475 -3.87214,-0.46224 -4.29303,-0.54997 -1.04905,-0.21867 -2.45183,1.94724 -1.91311,2.95385 0.31109,0.58128 1.07223,0.73387 5.57625,1.11795 4.42122,0.37701 9.01101,0.83801 10.08698,1.01312 0.15667,0.0255 0.23605,-0.6224 0.17639,-1.43979 z m 19.40592,-1.91777 c -0.10574,-0.88525 -0.54418,-1.08304 -8.32222,-3.75445 -4.51583,-1.55098 -8.27595,-2.75461 -8.35583,-2.67473 -0.0799,0.0799 -0.0578,0.79717 0.0491,1.59399 l 0.19432,1.44876 7.63234,2.12119 c 4.19779,1.16666 7.9207,2.13886 8.27313,2.16046 0.49327,0.0302 0.6151,-0.17588 0.52917,-0.89522 z m -20.60612,-5.46261 c 0.12824,-0.80202 0.15824,-1.53314 0.0667,-1.62472 -0.40382,-0.40382 -6.50766,-1.89711 -11.82111,-2.89201 -5.60479,-1.04946 -6.00103,-1.07659 -12.34723,-0.84562 l -6.556605,0.23864 8.290275,1.5219 c 4.55966,0.83705 11.22716,2.29626 14.81667,3.24269 3.58951,0.94642 6.70454,1.74249 6.92227,1.76905 0.21774,0.0266 0.50082,-0.60792 0.62907,-1.40993 z m 19.61255,0.26851 v -1.18971 l -7.32014,-3.43878 c -4.02607,-1.89134 -7.51858,-3.51608 -7.76111,-3.61055 -0.52769,-0.20553 -0.60874,1.91446 -0.10372,2.71292 0.26445,0.41811 13.99134,6.56621 14.92039,6.68266 0.14552,0.0182 0.26458,-0.50221 0.26458,-1.15654 z m -19.75556,-8.27296 v -1.70155 l -3.869,-1.69129 -3.86901,-1.69129 -8.21363,0.38977 c -11.637657,0.55225 -21.670005,1.88581 -22.817182,3.03298 -0.288146,0.28815 -0.434023,0.61378 -0.324172,0.72363 0.109851,0.10985 2.640401,0.026 5.623445,-0.18634 2.983046,-0.21234 9.630589,-0.49687 14.772329,-0.6323 l 9.34861,-0.24623 4.40973,1.82039 c 2.42534,1.00122 4.52878,1.83465 4.6743,1.85208 0.14552,0.0174 0.26458,-0.734 0.26458,-1.66985 z M 101.84378,127.2704 c 0.72219,-0.73667 1.78618,-1.40549 2.45285,-1.54184 1.07178,-0.2192 1.21058,-0.39714 1.54709,-1.98336 0.27488,-1.29568 0.59453,-1.85466 1.24644,-2.17967 0.77745,-0.3876 0.95928,-0.88808 1.60537,-4.41866 0.52224,-2.85374 0.8789,-4.01048 1.25916,-4.08372 0.46774,-0.0901 0.4776,0.32736 0.0833,3.52645 -0.60885,4.93932 -0.62222,4.79891 0.46915,4.92811 1.34157,0.15882 1.41241,0.88509 0.11415,1.17024 -0.97726,0.21464 -1.08516,0.36205 -0.98883,1.35099 0.0941,0.96609 0.26827,1.13632 1.34286,1.31252 1.18757,0.19472 3.86717,1.68063 3.87618,2.14945 0.004,0.2289 -2.76493,0.46063 -10.22618,0.85571 l -4.05695,0.21482 z"
         id="path1181"
         inkscape:connector-curvature="0" />
      <path
         style="fill:#630063;fill-opacity:1;stroke:none;stroke-width:0.35277781;stroke-opacity:1"
         d="m 82.27091,163.24285 c -4.138187,-8.06066 -10.177499,-14.02127 -18.291469,-18.05307 -3.269684,-1.6247 -4.528621,-2.96106 -3.431333,-3.64234 1.786728,-1.10936 8.429671,-1.58408 15.672668,-1.12002 l 5.285781,0.33866 1.152414,-0.879 c 1.370393,-1.04524 1.498709,-1.85358 0.294243,-1.85358 -0.944411,0 -1.588579,-1.22213 -0.970137,-1.84057 0.197145,-0.19715 2.236978,-0.73378 4.53296,-1.19251 2.295984,-0.45874 4.691349,-1.07307 5.323033,-1.36518 0.986599,-0.45623 1.1358,-0.691 1.058333,-1.66525 -0.08781,-1.10436 -0.03921,-1.14574 1.850094,-1.57544 3.273362,-0.7445 7.577643,-1.15286 16.280033,-1.54457 l 8.34254,-0.37551 8.24683,4.91896 c 4.98927,2.97594 8.42249,5.24709 8.69153,5.74966 0.24459,0.45688 2.78063,2.26953 5.63564,4.02812 l 5.19093,3.19742 0.1084,1.47524 c 0.0949,1.29095 -0.004,1.52659 -0.79375,1.88629 -1.06,0.48296 -1.05185,0.39679 -0.37292,3.9448 0.87175,4.55569 0.61626,8.94299 -0.61415,10.54646 -0.39816,0.51888 -3.22539,0.6364 -27.25536,1.13287 -14.74611,0.30467 -28.557362,0.55207 -30.691668,0.54979 l -3.880556,-0.004 -1.364086,-2.65707 z m 62.92381,-5.56564 c 0,-0.78072 -0.35733,-0.89311 -7.96162,-2.50412 -4.3789,-0.92768 -8.02947,-1.61886 -8.11238,-1.53596 -0.0829,0.0829 -0.25238,0.89226 -0.3766,1.79856 -0.21388,1.56045 -0.18123,1.64906 0.61585,1.67136 0.46293,0.013 3.61982,0.311 7.01531,0.66233 8.73487,0.9038 8.81944,0.90292 8.81944,-0.0922 z m -19.75555,-2.8297 v -1.53044 l -3.79237,-0.74883 c -5.38996,-1.06429 -10.64295,-1.59206 -11.20481,-1.12576 -0.24703,0.20502 -0.64855,0.85417 -0.89228,1.44258 -0.73858,1.7831 -0.25449,1.94835 7.95196,2.71441 4.07458,0.38036 7.52739,0.71112 7.67291,0.73502 0.14552,0.0239 0.26459,-0.64524 0.26459,-1.48698 z m 19.40277,-1.80013 c 0,-0.47362 -0.13772,-0.94624 -0.30606,-1.05028 -0.16833,-0.10403 -3.99948,-1.45968 -8.51367,-3.01253 l -8.20761,-2.82338 0.22491,1.64092 c 0.1237,0.9025 0.26533,1.68133 0.31473,1.73072 0.18376,0.18377 15.27672,4.31632 15.87034,4.34542 0.42762,0.0209 0.61736,-0.23441 0.61736,-0.83087 z m -20.59752,-5.71687 -0.04,-1.6391 -2.99861,-0.82311 c -1.64923,-0.45272 -5.63457,-1.31636 -8.85631,-1.91921 -5.76165,-1.07812 -5.9641,-1.09126 -12.34722,-0.80098 l -6.489525,0.29512 6.863005,1.20923 c 3.77465,0.66509 10.44215,2.11356 14.81667,3.21884 4.37451,1.10528 8.20977,2.02956 8.5228,2.05395 0.45353,0.0354 0.56103,-0.28859 0.52917,-1.59474 z m 19.47229,0.36112 -0.10949,-1.27798 -7.76111,-3.61697 c -4.26861,-1.98933 -7.77283,-3.59705 -7.78715,-3.57271 -0.0143,0.0243 0.04,0.78149 0.12074,1.68256 l 0.14679,1.6383 7.46397,3.185 c 4.10519,1.75175 7.59263,3.19733 7.74987,3.21239 0.15723,0.0151 0.2366,-0.54769 0.17638,-1.25059 z m -19.68866,-8.19628 v -1.71316 l -3.79236,-1.68455 -3.79236,-1.68454 -8.64305,0.40389 c -11.893435,0.55578 -21.227442,1.81808 -22.59495,3.05566 -1.084303,0.98128 -0.842059,1.11156 1.534781,0.82542 2.867424,-0.34521 18.860329,-1.01734 24.206769,-1.01734 h 4.12537 l 4.21332,1.73396 c 2.31732,0.95367 4.33238,1.74742 4.4779,1.76389 0.14552,0.0165 0.26458,-0.741 0.26458,-1.68323 z M 101.0975,128.30068 c 0,-0.56894 1.91497,-2.26162 2.55863,-2.26162 1.32973,0 1.97948,-0.67378 2.22434,-2.30661 0.18779,-1.25225 0.44606,-1.70587 1.19042,-2.09079 0.86084,-0.44516 1.01057,-0.8342 1.58567,-4.12 0.73766,-4.21466 0.83749,-4.53538 1.41166,-4.53538 0.33452,0 0.32903,0.75476 -0.025,3.43958 -0.64996,4.92844 -0.65269,4.90416 0.57933,5.15056 1.36468,0.27294 1.35501,0.81364 -0.0199,1.11563 -0.95733,0.21026 -1.06614,0.36147 -0.97014,1.34806 0.0769,0.7904 0.31183,1.14463 0.81368,1.22694 0.96244,0.15784 4.40973,1.88305 4.40973,2.20686 0,0.14363 -1.70657,0.35979 -3.79237,0.48035 -2.08579,0.12057 -5.18142,0.31144 -6.87916,0.42418 -1.69775,0.11273 -3.08681,0.0777 -3.08681,-0.0778 z"
         id="path1179"
         inkscape:connector-curvature="0" />
      <path
         style="fill:#630063;fill-opacity:1;stroke:none;stroke-width:0.35277781;stroke-opacity:1"
         d="m 82.72516,164.05688 c -1.395031,-3.01543 -4.672539,-7.76496 -7.256578,-10.51571 -3.113026,-3.31387 -6.895991,-6.11478 -11.346036,-8.40061 -3.51551,-1.8058 -4.636496,-2.93528 -3.568361,-3.59543 1.762788,-1.08946 10.916539,-1.54347 18.183595,-0.90188 l 2.863894,0.25285 1.369439,-1.34153 1.369439,-1.34154 -1.129445,-0.11084 c -1.367972,-0.13425 -1.925501,-1.27925 -0.964912,-1.98165 0.338507,-0.24752 2.521215,-0.79862 4.850462,-1.22464 4.367918,-0.79892 6.701769,-1.83313 5.914129,-2.62077 -0.810225,-0.81023 -0.307284,-1.25702 2.001294,-1.77788 3.378864,-0.76233 8.65544,-1.25133 17.16913,-1.5911 l 7.37956,-0.29451 8.10128,4.86187 c 4.6751,2.80569 8.35565,5.24963 8.70274,5.77873 0.3308,0.50427 2.88942,2.31185 5.68583,4.01684 l 5.08438,3.09998 0.1084,1.47503 c 0.0948,1.29071 -0.004,1.52638 -0.79375,1.88607 -1.06639,0.48587 -1.05308,0.32057 -0.33423,4.15085 0.68721,3.66173 0.5323,8.15371 -0.33855,9.81708 l -0.60027,1.14653 -3.07774,0.009 c -1.69276,0.005 -13.55525,0.2393 -26.36108,0.52107 -12.80584,0.28177 -25.280266,0.51596 -27.720952,0.52041 l -4.437615,0.008 z m 62.46956,-6.38955 c 0,-0.79364 -0.31933,-0.89443 -7.8493,-2.47756 -4.31712,-0.90765 -8.04775,-1.64662 -8.29028,-1.64216 -0.2929,0.005 -0.44097,0.60041 -0.44097,1.77201 0,1.43574 0.11485,1.76827 0.61736,1.78743 0.33955,0.013 3.39548,0.311 6.79097,0.66233 8.85044,0.91576 9.17222,0.91218 9.17222,-0.10205 z m -19.75555,-2.87688 c 0,-0.87312 -0.0619,-1.5875 -0.13756,-1.5875 -0.0757,0 -1.62347,-0.30164 -3.43958,-0.6703 -1.81612,-0.36867 -5.01294,-0.86075 -7.10404,-1.09352 -4.18961,-0.46637 -4.44562,-0.39529 -5.20828,1.44593 -0.73924,1.7847 -0.24664,1.95692 7.77557,2.71836 3.97757,0.37754 7.43038,0.70625 7.67291,0.73048 0.29398,0.0293 0.44098,-0.48514 0.44098,-1.54345 z m 19.40277,-1.94028 c 0,-0.58208 -0.0583,-1.05833 -0.12967,-1.05833 -0.13713,0 -15.16552,-5.09132 -16.19894,-5.48788 -0.52051,-0.19974 -0.60472,0.009 -0.60472,1.50015 v 1.7322 l 7.84931,2.15146 c 4.31711,1.1833 8.12711,2.16704 8.46666,2.1861 0.45847,0.0257 0.61736,-0.23775 0.61736,-1.0237 z m -20.52997,-5.54558 -0.10753,-1.66503 -2.82222,-0.79092 c -1.55222,-0.435 -5.37485,-1.27324 -8.49474,-1.86275 -5.89751,-1.11434 -8.79564,-1.25321 -16.023316,-0.76776 l -3.351389,0.2251 7.408335,1.33893 c 4.07458,0.73642 10.74208,2.19042 14.81667,3.23112 4.07458,1.0407 7.69484,1.90662 8.04502,1.92426 0.54253,0.0273 0.62079,-0.21418 0.52917,-1.63295 z m 19.40474,0.3568 -0.10949,-1.30823 -7.75982,-3.60255 c -4.2679,-1.9814 -7.78567,-3.57551 -7.81726,-3.54247 -0.0316,0.0331 0.0274,0.80704 0.13101,1.71998 l 0.18844,1.65989 6.2177,2.62722 c 3.41974,1.44497 6.77333,2.86788 7.45243,3.16203 1.75796,0.76144 1.81849,0.7359 1.69699,-0.71587 z m -19.47229,-8.11164 -0.04,-1.65875 -3.70416,-1.67491 c -3.46546,-1.56697 -3.89742,-1.67594 -6.70278,-1.691 -10.02034,-0.0538 -26.645295,1.8395 -28.421503,3.23667 -0.472481,0.37165 -0.859056,0.78688 -0.859056,0.92272 0,0.13585 1.071562,0.14035 2.38125,0.01 1.309688,-0.13035 8.175625,-0.42791 15.257639,-0.66125 l 12.87639,-0.42425 4.23333,1.78971 c 2.32834,0.98434 4.41008,1.79424 4.62609,1.79976 0.23972,0.006 0.37718,-0.63628 0.35278,-1.6487 z M 101.0975,128.28747 c 0,-0.55861 1.92295,-2.24841 2.55863,-2.24841 1.32973,0 1.97948,-0.67378 2.22434,-2.30661 0.18886,-1.25941 0.44478,-1.7052 1.20442,-2.09803 0.88175,-0.45597 1.01907,-0.81654 1.59858,-4.19749 0.34868,-2.03426 0.76023,-3.90295 0.91454,-4.15264 0.62487,-1.01105 0.75212,0.22373 0.36966,3.58712 -0.57305,5.03947 -0.587,4.93432 0.65483,4.93432 1.37953,0 1.3644,0.55614 -0.0227,0.83356 -0.96561,0.19312 -1.06917,0.33533 -0.97013,1.33227 0.098,0.98705 0.29439,1.17024 1.69836,1.58459 0.87312,0.25768 2.06015,0.85071 2.63784,1.31784 l 1.05034,0.84933 -4.22534,0.22126 c -2.32394,0.12169 -5.45565,0.30926 -6.95937,0.41683 -1.50371,0.10757 -2.73403,0.0743 -2.73403,-0.0739 z"
         id="path1177"
         inkscape:connector-curvature="0" />
      <path
         style="fill:#630063;fill-opacity:1;stroke:none;stroke-width:0.35277781;stroke-opacity:1"
         d="m 82.578447,163.70754 c -2.650859,-5.41299 -7.396343,-11.17783 -12.154597,-14.76545 -1.271092,-0.95837 -3.849907,-2.53723 -5.7307,-3.50856 -4.993054,-2.57865 -5.612102,-3.43273 -3.045464,-4.20171 2.421479,-0.72549 7.87139,-0.98185 13.978568,-0.65752 5.534126,0.29389 5.788646,0.27752 6.791691,-0.43671 0.573154,-0.40812 1.20611,-1.0485 1.40657,-1.42306 0.313285,-0.58538 0.244934,-0.68103 -0.486689,-0.68103 -0.468138,0 -1.055399,-0.24609 -1.305024,-0.54687 -0.795001,-0.95792 0.301459,-1.50426 4.897464,-2.44031 4.489951,-0.91444 4.762796,-1.00292 5.777406,-1.87338 0.470606,-0.40374 0.523339,-0.67438 0.236002,-1.21127 -0.203504,-0.38026 -0.308512,-0.75287 -0.233352,-0.82803 0.324612,-0.32461 5.399274,-1.20943 8.944628,-1.55958 2.11875,-0.20926 6.9479,-0.5164 10.73144,-0.68253 l 6.87916,-0.30207 8.29028,4.88794 c 5.29622,3.12265 8.48139,5.21625 8.81945,5.797 0.3043,0.52277 2.70283,2.23423 5.64444,4.02757 l 5.11528,3.1185 0.10853,1.45197 c 0.0957,1.27981 0.001,1.49263 -0.79375,1.795 -1.06619,0.40537 -1.05519,0.25797 -0.33462,4.48529 0.64856,3.80483 0.52831,7.4379 -0.31008,9.36897 l -0.57436,1.32292 -3.45758,0.007 c -1.90167,0.004 -14.09384,0.23857 -27.0937,0.52115 -12.99986,0.28257 -25.302985,0.50884 -27.340277,0.50282 l -3.704167,-0.0109 -1.056549,-2.15745 z m 62.616273,-6.09487 c 0,-0.48507 -0.138,-0.88194 -0.30667,-0.88194 -0.16867,0 -3.6113,-0.71438 -7.65029,-1.5875 -4.03898,-0.87313 -7.6316,-1.5875 -7.9836,-1.5875 -0.53281,0 -0.63999,0.29541 -0.63999,1.76389 0,1.43574 0.11485,1.76827 0.61736,1.78743 0.33955,0.013 3.39548,0.311 6.79097,0.66233 3.39549,0.35133 6.8483,0.65824 7.67292,0.68201 1.3756,0.0397 1.4993,-0.0295 1.4993,-0.83872 z m -19.70034,-2.82222 c -0.0694,-0.87312 -0.19242,-1.5875 -0.27328,-1.5875 -0.0809,0 -1.61269,-0.31058 -3.40406,-0.69018 -3.87243,-0.82058 -10.28222,-1.58132 -11.00073,-1.3056 -0.75269,0.28884 -1.67457,2.27892 -1.42294,3.07175 0.14167,0.44633 0.55068,0.69698 1.16471,0.71372 0.5205,0.0142 3.80386,0.31148 7.29636,0.66063 3.4925,0.34914 6.66865,0.65503 7.0581,0.67975 0.62781,0.0398 0.69378,-0.13507 0.58184,-1.54257 z m 19.34756,-1.71843 v -1.18927 l -8.02569,-2.74989 c -4.41413,-1.51243 -8.22413,-2.81987 -8.46667,-2.90541 -0.31413,-0.1108 -0.44097,0.34412 -0.44097,1.58159 v 1.73715 l 8.37847,2.31686 c 4.60816,1.27428 8.41816,2.33518 8.46667,2.35755 0.0485,0.0224 0.0882,-0.49449 0.0882,-1.14858 z m -20.46111,-5.80846 v -1.70606 l -3.43958,-0.91865 c -7.11659,-1.90071 -12.82759,-2.7276 -18.57826,-2.6899 -2.927337,0.0192 -6.195562,0.13825 -7.262715,0.26458 -1.829626,0.2166 -1.507727,0.3063 5.644445,1.57285 4.1716,0.73874 10.91847,2.19274 14.99306,3.23112 4.07458,1.03838 7.68614,1.9024 8.02569,1.92004 0.50728,0.0263 0.61736,-0.27213 0.61736,-1.67398 z m 19.40278,0.49216 c 0,-0.66765 -0.19844,-1.34054 -0.44097,-1.49531 -1.21421,-0.77485 -15.22176,-7.14566 -15.37477,-6.99264 -0.0976,0.0976 -0.0318,0.90229 0.14625,1.78828 l 0.32366,1.61088 7.40833,3.13502 c 4.07458,1.72426 7.5274,3.14237 7.67292,3.15134 0.14552,0.009 0.26458,-0.52993 0.26458,-1.19757 z m -19.40278,-8.09152 c 0,-0.84937 -0.19844,-1.69338 -0.44097,-1.87559 -0.24253,-0.1822 -1.97438,-0.99539 -3.84855,-1.80708 -3.19703,-1.38462 -3.61118,-1.47573 -6.70278,-1.47455 -7.00812,0.003 -15.988253,0.75502 -23.829191,1.99643 -2.879091,0.45583 -3.757184,0.73669 -4.381717,1.40147 -0.429581,0.45727 -0.714284,0.8946 -0.632674,0.97186 0.08161,0.0772 1.577132,0.005 3.323382,-0.16068 1.74625,-0.16562 8.508753,-0.47906 15.02778,-0.69652 l 11.85278,-0.3954 4.19861,1.75112 c 5.37815,2.24307 5.43333,2.246 5.43333,0.28894 z M 101.0975,128.17922 c 0,-0.56491 1.79013,-1.88186 2.8537,-2.09938 1.26635,-0.259 1.55882,-0.63911 2.06731,-2.68681 0.22863,-0.9207 0.6289,-1.53387 1.15146,-1.76389 0.68807,-0.30287 0.90841,-0.91549 1.56293,-4.34546 0.41906,-2.19608 0.8569,-4.08785 0.97298,-4.20393 0.55953,-0.55953 0.64193,0.54423 0.26786,3.58809 -0.59995,4.88191 -0.57642,5.13789 0.47237,5.13789 0.48507,0 0.88194,0.14154 0.88194,0.31453 0,0.17299 -0.39687,0.41414 -0.88194,0.53589 -0.72246,0.18132 -0.88195,0.43632 -0.88195,1.41009 0,1.09592 0.10331,1.20743 1.32292,1.42811 0.72761,0.13166 1.95792,0.66308 2.73403,1.18093 l 1.41111,0.94156 -3.175,0.23176 c -5.98846,0.43714 -10.75972,0.58374 -10.75972,0.33062 z"
         id="path1175"
         inkscape:connector-curvature="0" />
      <path
         style="fill:#630063;fill-opacity:1;stroke:none;stroke-width:0.35277781;stroke-opacity:1"
         d="m 82.785001,163.84958 c -4.078642,-8.07975 -10.322362,-14.42768 -18.433865,-18.74156 -5.200014,-2.76548 -5.301465,-3.19291 -0.977832,-4.11978 2.160714,-0.4632 4.005536,-0.52342 10.471165,-0.34177 l 7.848363,0.22048 1.291543,-1.18361 c 1.302983,-1.1941 1.382741,-2.22654 0.141572,-1.83261 -0.345997,0.10982 -0.825477,-0.0416 -1.07184,-0.33843 -0.79993,-0.96385 0.198786,-1.4754 4.497444,-2.30359 4.305964,-0.8296 6.9461,-1.9122 6.618987,-2.71415 -0.10281,-0.25205 -0.277446,-0.68117 -0.388073,-0.9536 -0.145846,-0.35914 0.266347,-0.60057 1.499305,-0.8782 3.058118,-0.68859 10.73612,-1.43719 17.92823,-1.74798 l 7.05555,-0.3049 8.35,4.94999 c 5.19823,3.08158 8.48484,5.24593 8.70723,5.73401 0.2054,0.45082 2.61634,2.16278 5.67291,4.02822 l 5.3157,3.2442 v 1.38678 c 0,1.15463 -0.14764,1.44291 -0.88195,1.72209 -1.0403,0.39553 -1.0551,0.61079 -0.31345,4.55862 0.65338,3.47798 0.52027,7.30196 -0.32332,9.28791 l -0.56195,1.32292 -4.16313,0.009 c -2.28973,0.005 -14.72002,0.23902 -27.62287,0.52038 -12.90285,0.28137 -24.8465,0.51554 -26.541449,0.52038 l -3.081729,0.009 z m 62.409719,-6.18566 c 0,-0.78604 -0.28923,-0.89227 -5.37986,-1.97586 -2.95892,-0.62983 -6.6051,-1.42525 -8.10262,-1.7676 -1.49753,-0.34234 -2.80722,-0.538 -2.91042,-0.43479 -0.40678,0.40677 -0.18354,3.59805 0.25332,3.62138 0.24253,0.013 3.2191,0.311 6.61458,0.66233 3.39549,0.35133 6.92768,0.65824 7.84931,0.68201 1.53689,0.0396 1.67569,-0.0256 1.67569,-0.78747 z m -19.47069,-2.78528 -0.10848,-1.4993 -2.46944,-0.61586 c -1.35819,-0.33872 -4.67637,-0.88298 -7.37372,-1.20947 l -4.90426,-0.59361 -0.82662,1.03308 c -0.85631,1.07019 -1.01287,1.78691 -0.54954,2.51585 0.16943,0.26656 2.89011,0.67682 7.31474,1.10301 10.02126,0.96526 9.04605,1.0455 8.91732,-0.7337 z m 19.01968,-2.94985 c -0.16433,-0.16433 -16.33209,-5.7814 -16.64076,-5.7814 -0.10689,0 -0.19434,0.76876 -0.19434,1.70834 v 1.70834 l 8.37847,2.28756 8.37848,2.28757 0.11307,-1.03121 c 0.0622,-0.56716 0.0465,-1.0978 -0.0349,-1.1792 z m -20.36288,-4.68027 v -1.72111 l -3.43958,-0.92991 c -1.89177,-0.51146 -5.58271,-1.3449 -8.20209,-1.8521 -4.22212,-0.81755 -5.5113,-0.91403 -11.36196,-0.8503 -9.705389,0.10573 -9.824124,0.34466 -0.94742,1.90654 4.15079,0.73035 10.88063,2.17748 14.95522,3.21586 4.07458,1.03838 7.76552,1.9024 8.20208,1.92004 0.71907,0.0291 0.79375,-0.12986 0.79375,-1.68902 z m 19.40278,0.38676 v -1.33435 l -7.80311,-3.62134 c -4.29171,-1.99174 -7.89017,-3.53429 -7.99657,-3.42788 -0.10641,0.1064 -0.0478,0.93082 0.13019,1.83204 l 0.32366,1.63857 7.23194,3.08616 c 3.97757,1.6974 7.43038,3.10304 7.67292,3.12365 0.28166,0.024 0.44097,-0.44458 0.44097,-1.29685 z m -19.40278,-7.9919 c 0,-0.83792 -0.19844,-1.68103 -0.44097,-1.87359 -0.24253,-0.19257 -1.9491,-1.0228 -3.79236,-1.84496 l -3.35139,-1.49484 -7.40833,0.21337 c -8.17433,0.23544 -12.265065,0.59297 -18.873617,1.64953 -3.65186,0.58385 -4.558079,0.8528 -5.272959,1.5649 -0.47478,0.47294 -0.776811,0.94632 -0.671181,1.05194 0.10563,0.10564 2.081587,0.032 4.391015,-0.16367 2.309428,-0.19566 9.071526,-0.50593 15.026882,-0.68951 l 10.82792,-0.33377 4.51791,1.87485 c 2.48486,1.03116 4.63698,1.80608 4.7825,1.72204 0.14552,-0.084 0.26458,-0.83837 0.26458,-1.67629 z M 101.0975,128.12985 c 0,-0.40076 2.38149,-2.09079 2.94622,-2.09079 0.9548,0 1.63986,-0.42054 1.64186,-1.00788 0.005,-1.51844 0.74757,-3.16001 1.51643,-3.35298 0.71436,-0.17929 0.88078,-0.63956 1.55614,-4.30386 0.41593,-2.2567 0.84681,-4.19367 0.95752,-4.30437 0.55927,-0.55928 0.59608,0.61113 0.13586,4.31942 -0.27848,2.24388 -0.4306,4.15551 -0.33805,4.24806 0.0926,0.0926 0.53869,0.16828 0.99143,0.16828 1.09292,0 1.05343,0.57127 -0.0588,0.85042 -0.72665,0.18238 -0.88195,0.43476 -0.88195,1.43337 0,1.12159 0.0987,1.23038 1.32292,1.45825 0.72761,0.13544 1.95792,0.65629 2.73403,1.15744 l 1.41111,0.9112 -3.70417,0.23742 c -6.66635,0.42729 -10.23055,0.52346 -10.23055,0.27602 z"
         id="path1173"
         inkscape:connector-curvature="0" />
      <path
         style="fill:#630063;fill-opacity:1;stroke:none;stroke-width:0.35277781;stroke-opacity:1"
         d="m 82.719438,163.69809 c -4.131125,-8.2647 -10.769756,-14.85394 -19.213082,-19.07015 -2.710261,-1.35337 -3.650757,-2.18254 -3.10014,-2.73316 0.188184,-0.18818 1.602269,-0.59258 3.14241,-0.89866 2.278909,-0.4529 4.226796,-0.51506 10.462444,-0.33387 l 7.662185,0.22264 1.301331,-1.19258 c 1.332825,-1.22144 1.388623,-2.23818 0.1044,-1.90235 -0.359024,0.0939 -0.843408,-0.059 -1.076409,-0.33975 -0.752859,-0.90713 0.364153,-1.42918 5.081164,-2.3747 4.433793,-0.88875 6.39577,-1.72902 6.06677,-2.59826 -0.0918,-0.24253 -0.252991,-0.65233 -0.358211,-0.91066 -0.467801,-1.14851 11.23449,-2.51853 23.47464,-2.74823 l 3.35139,-0.0629 8.00956,4.82648 c 4.63525,2.79316 8.30667,5.24373 8.7148,5.8169 0.38788,0.54473 3.01452,2.38917 5.83697,4.09877 5.1182,3.10017 5.13173,3.11179 5.13173,4.40994 0,1.04601 -0.17317,1.38048 -0.88195,1.70342 -1.04182,0.47469 -1.04565,0.53234 -0.31519,4.73834 0.63993,3.68468 0.51618,7.18351 -0.3244,9.17238 l -0.55913,1.32292 -4.86869,0.009 c -2.67778,0.005 -15.3462,0.2393 -28.15203,0.52107 -12.805836,0.28177 -24.431988,0.51596 -25.835896,0.52041 l -2.552562,0.008 z m 62.397932,-6.80953 c -0.0717,-0.0717 -3.5365,-0.85584 -7.69946,-1.74244 -4.16296,-0.88659 -7.84683,-1.69721 -8.18638,-1.80135 -0.53672,-0.16463 -0.61736,0.0672 -0.61736,1.77468 0,1.08023 0.11906,1.97424 0.26458,1.98668 0.14552,0.0125 3.83646,0.36963 8.20208,0.79375 l 7.9375,0.77113 0.11474,-0.826 c 0.0631,-0.45431 0.056,-0.8847 -0.0157,-0.95645 z m -19.32543,-1.9009 c 0,-0.76466 -0.15292,-1.4848 -0.33983,-1.60032 -0.72183,-0.44612 -6.72382,-1.57899 -10.56016,-1.99323 l -4.02082,-0.43415 -0.82988,0.96478 c -0.85472,0.99368 -1.0281,1.83092 -0.53874,2.60164 0.18279,0.28789 2.66617,0.66997 7.13835,1.09827 9.99201,0.95693 9.15108,1.01547 9.15108,-0.63699 z m 18.93762,-3.07302 c -0.19703,-0.19704 -16.18259,-5.76425 -16.55637,-5.766 -0.14552,-7.1e-4 -0.26458,0.78948 -0.26458,1.75592 0,1.52757 0.10372,1.78341 0.79375,1.95797 0.43656,0.11044 4.20688,1.12326 8.37847,2.25072 l 7.58473,2.04994 0.11307,-1.0432 c 0.0622,-0.57376 0.0401,-1.11617 -0.0491,-1.20535 z m -20.29645,-4.69628 0.10845,-1.57487 -2.638,-0.80899 c -1.45091,-0.44495 -5.49551,-1.3412 -8.98801,-1.99168 -6.17292,-1.1497 -6.54508,-1.17796 -13.345521,-1.01333 -4.055713,0.0982 -6.864371,0.30051 -6.683431,0.48145 0.171651,0.17165 3.87526,0.95132 8.230242,1.73261 4.35499,0.78128 11.25191,2.25418 15.32649,3.27311 4.07459,1.01892 7.51476,1.76798 7.64483,1.66457 0.13007,-0.1034 0.2853,-0.89669 0.34495,-1.76287 z m 19.3505,0.58949 v -1.51454 l -7.70722,-3.60074 c -4.23896,-1.9804 -7.81084,-3.60073 -7.9375,-3.60073 -0.31179,0 -0.24668,2.12232 0.092,2.99861 0.24014,0.62132 3.75448,2.25635 15.46453,7.19475 0.0485,0.0205 0.0882,-0.64435 0.0882,-1.47735 z m -19.40278,-8.14246 v -1.8959 l -3.96875,-1.73697 -3.96875,-1.73697 -7.9375,0.26313 c -7.33209,0.24305 -16.410181,1.15225 -20.707872,2.07393 -1.651963,0.35429 -3.691019,1.81404 -3.208267,2.29679 0.106219,0.10622 2.236741,0.0254 4.734493,-0.17958 2.497751,-0.20499 9.224494,-0.51413 14.948316,-0.68697 l 10.40694,-0.31427 4.58611,1.89086 c 2.52237,1.03998 4.70518,1.89784 4.8507,1.90636 0.14552,0.009 0.26458,-0.83767 0.26458,-1.88041 z m -23.28375,-11.50966 c 10e-4,-0.40187 2.48109,-2.11709 3.06837,-2.12207 1.00685,-0.009 1.41131,-0.43278 1.67656,-1.75849 0.43263,-2.16222 0.55589,-2.39515 1.3764,-2.60108 0.71989,-0.18068 0.88263,-0.63123 1.55636,-4.30871 0.74171,-4.04852 0.94428,-4.69459 1.34599,-4.29287 0.19288,0.19288 -0.37779,6.2393 -0.74935,7.93947 -0.14995,0.68617 -0.0291,0.79375 0.89159,0.79375 1.23431,0 1.44673,0.60227 0.2713,0.76921 -0.6167,0.0876 -0.81926,0.37988 -0.90811,1.31046 -0.124,1.29863 0.31596,1.78667 1.61862,1.79548 0.82408,0.006 3.24613,1.38821 3.25388,1.85749 0.002,0.14552 -1.0672,0.27962 -2.37689,0.29801 -1.30968,0.0184 -4.32612,0.13744 -6.7032,0.26458 -2.37707,0.12714 -4.32176,0.15178 -4.32152,0.0548 z"
         id="path1171"
         inkscape:connector-curvature="0" />
      <path
         style="fill:#630063;fill-opacity:1;stroke:none;stroke-width:0.35277781;stroke-opacity:1"
         d="m 82.941565,163.95587 c -3.959074,-8.09205 -10.738307,-14.92144 -18.904901,-19.04476 -3.125134,-1.57789 -4.210567,-2.45875 -3.652412,-2.96404 1.060993,-0.9605 4.14618,-1.26773 12.730606,-1.26773 h 8.882641 l 1.019597,-0.97508 c 0.560778,-0.53629 1.115035,-0.87964 1.231683,-0.76299 0.116648,0.11665 2.566266,0.0338 5.443596,-0.18422 2.877333,-0.21798 9.676511,-0.52623 15.109285,-0.68501 l 9.87778,-0.2887 4.65382,1.88897 c 2.55961,1.03894 4.75034,1.88897 4.8683,1.88897 0.11797,0 0.16687,-0.89429 0.10868,-1.9873 l -0.1058,-1.98731 -3.93536,-1.71063 -3.93536,-1.71063 -8.00751,0.34045 c -7.92352,0.33688 -13.844256,0.92047 -19.490969,1.92114 -2.391883,0.42387 -3.069009,0.69292 -3.781215,1.50239 -0.691108,0.7855 -0.869834,0.86049 -0.878715,0.3687 -0.008,-0.44549 -0.299986,-0.61736 -1.048662,-0.61736 -1.224226,0 -1.711851,-0.58434 -1.0327,-1.23752 0.265492,-0.25534 2.510899,-0.87081 4.989792,-1.3677 5.372623,-1.07694 7.095103,-2.05566 5.835192,-3.31557 -0.590176,-0.59018 -0.442094,-0.65999 2.7115,-1.27846 4.034067,-0.79113 8.855937,-1.20783 16.932347,-1.46325 l 7.05555,-0.22314 8.08897,4.87726 c 4.96574,2.99409 8.28616,5.2203 8.59968,5.76573 0.29281,0.50941 2.74854,2.24309 5.75584,4.06348 4.98341,3.01657 5.24523,3.23074 5.24686,4.2921 0.001,0.80138 -0.26087,1.30838 -0.92733,1.79386 l -0.92903,0.67676 0.62417,4.1291 c 0.67967,4.49617 0.57738,7.11525 -0.35419,9.06876 l -0.59797,1.25396 -22.80767,0.42328 c -12.54421,0.2328 -26.309871,0.52304 -30.590347,0.64498 l -7.782686,0.22169 z m 62.253155,-6.16681 c 0,-0.58208 -0.0586,-1.05833 -0.13029,-1.05833 -0.13855,0 -14.33589,-3.03904 -15.62395,-3.34441 -0.69931,-0.1658 -0.771,-0.0228 -0.88194,1.75884 -0.0664,1.06662 -0.0414,1.95122 0.0556,1.96577 0.097,0.0146 3.74826,0.39046 8.11389,0.83533 4.36562,0.44487 8.05656,0.82962 8.20208,0.855 0.14552,0.0254 0.26458,-0.43012 0.26458,-1.0122 z m -19.40278,-2.96938 v -1.55826 l -1.81175,-0.38856 c -3.43927,-0.73759 -7.54614,-1.37913 -10.38978,-1.62299 -2.81788,-0.24166 -2.8623,-0.23275 -3.61598,0.7254 -0.82444,1.0481 -1.00467,2.44782 -0.366,2.84253 0.37407,0.2312 11.99871,1.41596 14.8606,1.51457 l 1.32291,0.0456 z m 19.05,-1.76777 c 0,-1.13781 -0.10961,-1.24943 -1.85208,-1.88617 -5.58135,-2.03956 -15.04621,-5.16799 -15.17846,-5.01696 -0.0843,0.0963 -0.0572,0.95553 0.0602,1.90952 l 0.21341,1.73451 8.11389,2.20092 c 4.46264,1.2105 8.23295,2.2159 8.37847,2.23423 0.14552,0.0183 0.26458,-0.5109 0.26458,-1.17605 z m -20.37846,-5.40521 c 0.0845,-0.92163 0.0511,-1.79658 -0.0744,-1.94432 -0.39545,-0.46582 -5.25916,-1.69502 -11.47358,-2.89971 -5.904,-1.14452 -6.111,-1.15968 -13.317358,-0.97509 -4.026077,0.10314 -7.32014,0.29152 -7.32014,0.41864 0,0.12713 3.690938,0.90395 8.202088,1.72628 4.51114,0.82233 11.53583,2.34042 15.61041,3.37353 4.07459,1.03312 7.59079,1.90044 7.81379,1.92738 0.23717,0.0286 0.46924,-0.64648 0.55914,-1.62671 z m 19.32013,0.14566 v -1.53003 l -7.67292,-3.58894 c -4.2201,-1.97392 -7.85085,-3.58727 -8.06834,-3.58525 -0.46353,0.004 0.0124,3.11317 0.5605,3.66127 0.23957,0.23958 14.30346,6.34302 15.09257,6.54987 0.0485,0.0127 0.0882,-0.6654 0.0882,-1.50692 z m -41.593,-20.61796 c 0.67256,-0.59051 1.68759,-1.12723 2.25561,-1.1927 0.93674,-0.10796 1.07792,-0.30478 1.51842,-2.11693 0.37907,-1.55944 0.65821,-2.04121 1.27196,-2.19525 0.69675,-0.17487 0.874,-0.66711 1.55632,-4.32209 0.7608,-4.07537 0.94082,-4.66194 1.31574,-4.28703 0.17632,0.17633 -0.28079,4.89475 -0.73616,7.5988 -0.18269,1.08479 -0.13524,1.14653 0.88124,1.14653 1.24125,0 1.46069,0.60161 0.28056,0.76921 -0.67206,0.0954 -0.79375,0.32905 -0.79375,1.52384 0,1.34392 0.0588,1.41951 1.23473,1.5875 1.1745,0.16779 3.52777,1.34173 3.52777,1.75984 0,0.10814 -1.07156,0.23186 -2.38125,0.27494 -1.30968,0.0431 -4.35512,0.17928 -6.76764,0.30267 l -4.38639,0.22434 z"
         id="path1169"
         inkscape:connector-curvature="0" />
      <path
         style="fill:#630063;fill-opacity:1;stroke:none;stroke-width:0.35277781;stroke-opacity:1"
         d="m 82.835363,163.71119 c -4.224211,-8.31546 -10.236444,-14.39783 -18.352883,-18.56696 -1.974656,-1.01431 -3.753571,-2.1493 -3.953144,-2.52221 -0.324375,-0.6061 -0.165959,-0.7373 1.493621,-1.23696 2.420069,-0.72862 8.765979,-1.00259 14.701926,-0.6347 4.434217,0.27481 4.788922,0.24906 5.644445,-0.40977 2.029233,-1.5627 2.34162,-2.65986 0.757321,-2.65986 -1.219876,0 -1.715585,-0.5869 -1.0327,-1.22268 0.265492,-0.24718 2.387714,-0.80877 4.716048,-1.24799 5.415693,-1.02161 7.413082,-2.14597 6.116165,-3.44289 -0.311782,-0.31178 -0.198791,-0.49061 0.470845,-0.74521 2.524806,-0.95993 15.337993,-2.14089 23.387413,-2.15556 l 2.81054,-0.005 8.04835,4.81483 c 5.13697,3.07313 8.24767,5.15226 8.59937,5.74764 0.32835,0.55585 2.67217,2.20981 5.79991,4.09281 4.98005,2.99816 5.24939,3.21721 5.25884,4.2771 0.007,0.81398 -0.24849,1.30538 -0.94252,1.81094 l -0.95249,0.69384 0.59971,3.70518 c 0.74056,4.57544 0.74934,5.97571 0.0522,8.32322 -0.38201,1.28636 -0.78188,1.92858 -1.32292,2.12469 -0.42648,0.15459 -11.49105,0.46834 -24.58792,0.69724 -13.09688,0.22889 -26.590628,0.50949 -29.986114,0.62357 l -6.173612,0.2074 -1.152411,-2.26855 z m 62.653417,-5.69502 c 0.0687,-0.36016 -0.0206,-0.80033 -0.19845,-0.97817 -0.27862,-0.27862 -16.39745,-3.91312 -16.52901,-3.72699 -0.0894,0.12648 -0.46746,3.77209 -0.39512,3.81009 0.22453,0.11794 15.71346,1.63566 16.29575,1.59678 0.38608,-0.0258 0.75815,-0.34155 0.82683,-0.70171 z m -19.69684,-3.20071 v -1.56249 l -2.02847,-0.40361 c -1.11566,-0.22198 -2.57953,-0.54764 -3.25306,-0.72368 -0.67352,-0.17604 -3.17304,-0.51335 -5.55448,-0.74958 -4.14641,-0.41131 -4.35228,-0.40039 -4.8583,0.2577 -0.76262,0.99181 -1.04476,2.29686 -0.63704,2.94667 0.27609,0.44002 1.69165,0.68745 6.49014,1.13445 3.37538,0.31442 6.97048,0.59223 7.98913,0.61736 l 1.85208,0.0457 z m 18.98311,-1.83972 -0.10949,-1.28554 -8.34883,-2.8596 c -4.59185,-1.57278 -8.43334,-2.77519 -8.53663,-2.67203 -0.1033,0.10315 -0.0753,0.97409 0.0622,1.93541 l 0.25002,1.74786 7.93383,2.18495 c 4.36361,1.20171 8.14186,2.19609 8.39611,2.20971 0.31981,0.0171 0.42853,-0.37138 0.35278,-1.26076 z m -20.39033,-4.27071 c 0.002,-0.33955 0.0972,-1.18115 0.21118,-1.87023 l 0.20729,-1.25286 -3.47437,-0.95538 c -1.91091,-0.52546 -5.94801,-1.42235 -8.97133,-1.9931 -5.33466,-1.00708 -5.71787,-1.03137 -12.979414,-0.82283 -4.115358,0.11818 -7.356726,0.33632 -7.203049,0.48476 0.153677,0.14843 3.930665,0.92179 8.393303,1.71857 4.46264,0.79677 11.44764,2.30269 15.52222,3.34648 4.07459,1.04379 7.60678,1.91223 7.84931,1.92988 0.24253,0.0176 0.44272,-0.24574 0.44486,-0.58529 z m 19.39889,-0.91951 v -1.53686 l -7.73549,-3.63296 c -4.25452,-1.99813 -6.41707,-3.5699 -6.06049,-3.17774 -0.28105,0.14105 -1.062,0.21222 -1.89022,2.32971 0.16779,1.04851 0.44826,1.20522 7.66562,4.28325 4.12031,1.75721 7.61053,3.21215 7.75605,3.2332 0.14552,0.0211 0.26458,-0.65332 0.26458,-1.4986 z m -19.47337,-8.22375 -0.1058,-1.99952 -3.88055,-1.72568 -3.88056,-1.72568 -5.82083,0.21995 c -7.48846,0.28296 -15.691068,1.03379 -20.778269,1.90195 -3.587471,0.61223 -4.107387,0.79396 -4.819073,1.68446 -0.438763,0.54901 -0.744101,1.05285 -0.678527,1.11965 0.06557,0.0668 2.710405,-0.0619 5.877408,-0.28607 3.166999,-0.22413 9.965051,-0.52453 15.106791,-0.66754 l 9.34861,-0.26002 4.40973,1.83766 c 2.42534,1.01071 4.61608,1.85177 4.86829,1.86901 0.33746,0.0231 0.43064,-0.49679 0.35278,-1.96817 z m -22.01819,-12.42025 c 0.6079,-0.63583 1.45513,-1.10802 2.10263,-1.17188 1.00349,-0.099 1.12093,-0.25695 1.57258,-2.11524 0.38882,-1.59982 0.6428,-2.03032 1.24875,-2.11667 0.67555,-0.0963 0.85289,-0.58205 1.585,-4.34173 0.45338,-2.32833 0.88995,-4.29948 0.97014,-4.38032 0.43964,-0.44324 0.43034,0.60542 -0.0389,4.38802 -0.28648,2.30935 -0.52087,4.24454 -0.52087,4.30042 0,0.0559 0.48562,0.10161 1.07915,0.10161 0.6296,0 0.98833,0.14696 0.86112,0.35277 -0.11991,0.19403 -0.53528,0.35278 -0.92304,0.35278 -0.61101,0 -0.69056,0.19938 -0.59655,1.4951 0.10294,1.41867 0.17384,1.50562 1.38701,1.70114 0.70319,0.11332 1.8003,0.53641 2.43803,0.94019 l 1.1595,0.73414 -2.26164,0.19864 c -1.2439,0.10925 -4.24601,0.29478 -6.67136,0.41229 l -4.40972,0.21366 z"
         id="path1167"
         inkscape:connector-curvature="0"
         sodipodi:nodetypes="csccccsccccccsccccccscsccccccccccccccsccccccccsccccccccccsccccsccccsccscccccccsccccscsccccccccssscsccsccccc" />
    </g>
    <path
       style="fill:#630063;fill-opacity:1;stroke:none;stroke-width:0.18031046px;stroke-linecap:butt;stroke-linejoin:miter;stroke-opacity:1"
       d="m 103.66338,114.22768 c -3.835555,-3.13643 -3.863435,-4.57319 -8.066985,-1.77208 -3.46774,-3.39369 -5.08846,-0.89898 -8.92832,1.33758 3.67267,-3.23633 3.75863,-6.70062 8.47662,-3.68714 5.242195,-3.53821 5.715075,0.37557 8.518685,4.12164 z"
       id="path1184"
       inkscape:connector-curvature="0"
       sodipodi:nodetypes="ccccc" />
    <path
       sodipodi:nodetypes="ccccc"
       inkscape:connector-curvature="0"
       id="path1186"
       d="m 119.65225,124.80493 c -2.97917,-2.43614 -3.00083,-3.55211 -6.26583,-1.37642 -2.69348,-2.63596 -3.95233,-0.69826 -6.93484,1.03893 2.85265,-2.51374 2.91942,-5.20453 6.584,-2.86389 4.07174,-2.74821 4.43904,0.29171 6.61667,3.20138 z"
       style="fill:#630063;fill-opacity:1;stroke:none;stroke-width:0.14005151px;stroke-linecap:butt;stroke-linejoin:miter;stroke-opacity:1" />
    <path
       style="fill:#630063;fill-opacity:1;stroke:none;stroke-width:0.14005151px;stroke-linecap:butt;stroke-linejoin:miter;stroke-opacity:1"
       d="m 132.68932,136.12013 c -2.97917,-2.43614 -3.00083,-3.55211 -6.26583,-1.37642 -2.69348,-2.63596 -3.95232,-0.69826 -6.93484,1.03893 2.85266,-2.51374 2.91943,-5.20453 6.584,-2.86389 4.07174,-2.74821 4.43904,0.29171 6.61667,3.20138 z"
       id="path1188"
       inkscape:connector-curvature="0"
       sodipodi:nodetypes="ccccc" />
    <path
       style="opacity:1;fill:#ffe6d5;fill-opacity:1;stroke:none;stroke-width:0.19814323;stroke-linecap:round;stroke-linejoin:round;stroke-miterlimit:4;stroke-dasharray:none;stroke-dashoffset:0;stroke-opacity:1;paint-order:normal"
       d="M 28.533995,62.824673 V 237.96403 H 203.67378 V 62.824673 Z m 88.378625,33.16737 a 54.402494,54.402494 0 0 1 54.40274,54.402307 54.402494,54.402494 0 0 1 -54.40274,54.4023 54.402494,54.402494 0 0 1 -54.402302,-54.4023 54.402494,54.402494 0 0 1 54.402302,-54.402307 z"
       id="rect1190"
       inkscape:connector-curvature="0" />
  </g>
</svg>
